<svg width="22" height="22" viewBox="0 0 16 17" fill="none" xmlns="http://www.w3.org/2000/svg">
<g clip-path="url(#clip0_14_106)">
<path d="M2.9215 0C1.30312 0 0 1.30346 0 2.92228V13.082C0 14.7008 1.30312 16.0043 2.9215 16.0043H8.42651V9.74759H6.77251V7.49499H8.42651V5.57048C8.42651 4.05848 9.40378 2.67021 11.655 2.67021C12.5665 2.67021 13.2405 2.75774 13.2405 2.75774L13.1875 4.8613C13.1875 4.8613 12.5001 4.8548 11.75 4.8548C10.9382 4.8548 10.808 5.22895 10.808 5.85008V7.49501H13.252L13.1455 9.7476H10.808V16.0043H13.0785C14.6969 16.0043 16 14.7008 16 13.082V2.92229C16 1.30348 14.6969 1.60042e-05 13.0785 1.60042e-05H2.92149L2.9215 0Z" fill="white"/>
</g>
<defs>
<clipPath id="clip0_14_106">
<rect width="16" height="16.0042" fill="white"/>
</clipPath>
</defs>
</svg>