<svg width="22" height="22" viewBox="0 0 16 16" fill="none" xmlns="http://www.w3.org/2000/svg">
<g clip-path="url(#clip0_14_52)">
<path d="M5.22117 12.1175C5.22117 12.1785 5.14878 12.2273 5.05751 12.2273C4.95366 12.2364 4.88127 12.1876 4.88127 12.1175C4.88127 12.0565 4.95366 12.0077 5.04493 12.0077C5.13934 11.9985 5.22117 12.0473 5.22117 12.1175ZM4.2424 11.9802C4.22037 12.0412 4.28331 12.1114 4.37772 12.1297C4.45955 12.1602 4.55397 12.1297 4.57285 12.0687C4.59173 12.0077 4.53194 11.9375 4.43752 11.9101C4.35569 11.8887 4.26443 11.9192 4.2424 11.9802ZM5.63345 11.9284C5.54218 11.9497 5.47924 12.0077 5.48868 12.0778C5.49812 12.1388 5.57995 12.1785 5.67436 12.1571C5.76563 12.1358 5.82857 12.0778 5.81913 12.0168C5.80969 11.9589 5.72472 11.9192 5.63345 11.9284ZM7.70429 0.242188C3.33916 0.242188 0 3.45345 0 7.6833C0 11.0653 2.19673 13.9594 5.33447 14.978C5.7373 15.0482 5.87893 14.8072 5.87893 14.609C5.87893 14.4199 5.86949 13.377 5.86949 12.7365C5.86949 12.7365 3.66646 13.194 3.20383 11.8278C3.20383 11.8278 2.84505 10.9403 2.32891 10.7116C2.32891 10.7116 1.60821 10.2328 2.37927 10.2419C2.37927 10.2419 3.16291 10.3029 3.59408 11.0287C4.28331 12.2059 5.43832 11.8674 5.88837 11.6661C5.96075 11.1782 6.16532 10.8397 6.39192 10.6384C4.63265 10.4493 2.85764 10.2023 2.85764 7.26855C2.85764 6.4299 3.09682 6.00905 3.60037 5.47231C3.51854 5.27409 3.25103 4.45678 3.6822 3.40161C4.33996 3.20338 5.85375 4.22501 5.85375 4.22501C6.48319 4.05423 7.15983 3.96579 7.83018 3.96579C8.50053 3.96579 9.17717 4.05423 9.80661 4.22501C9.80661 4.22501 11.3204 3.20033 11.9782 3.40161C12.4093 4.45983 12.1418 5.27409 12.06 5.47231C12.5635 6.0121 12.872 6.43295 12.872 7.26855C12.872 10.2114 11.0183 10.4463 9.259 10.6384C9.54854 10.8793 9.79402 11.3368 9.79402 12.0534C9.79402 13.0812 9.78457 14.3528 9.78457 14.6029C9.78457 14.8011 9.92935 15.0421 10.329 14.9719C13.4762 13.9594 15.61 11.0653 15.61 7.6833C15.61 3.45345 12.0694 0.242188 7.70429 0.242188ZM3.05906 10.7604C3.01814 10.7909 3.02758 10.861 3.08109 10.919C3.13144 10.9678 3.20383 10.9891 3.24474 10.9495C3.28565 10.919 3.27621 10.8488 3.22271 10.7909C3.17235 10.7421 3.09997 10.7207 3.05906 10.7604ZM2.71916 10.5134C2.69713 10.553 2.7286 10.6018 2.79155 10.6323C2.8419 10.6628 2.90484 10.6536 2.92687 10.6109C2.94891 10.5713 2.91743 10.5225 2.85449 10.492C2.79155 10.4737 2.74119 10.4829 2.71916 10.5134ZM3.73885 11.599C3.68849 11.6387 3.70737 11.7302 3.77976 11.7881C3.85215 11.8582 3.94341 11.8674 3.98433 11.8186C4.02524 11.779 4.00636 11.6875 3.94341 11.6295C3.87418 11.5594 3.77976 11.5502 3.73885 11.599ZM3.38007 11.1507C3.32971 11.1812 3.32971 11.2605 3.38007 11.3307C3.43042 11.4008 3.5154 11.4313 3.55631 11.4008C3.60667 11.3612 3.60667 11.2819 3.55631 11.2117C3.51225 11.1416 3.43042 11.1111 3.38007 11.1507Z" fill="white"/>
</g>
<defs>
<clipPath id="clip0_14_52">
<rect width="15.61" height="15.6141" fill="white"/>
</clipPath>
</defs>
</svg>