<svg width="24" height="24" viewBox="0 0 18 19" fill="none" xmlns="http://www.w3.org/2000/svg">
<path d="M16.3541 7.53272H15.75V7.50159H9V10.5024H13.2386C12.6203 12.2492 10.9586 13.5032 9 13.5032C6.51487 13.5032 4.5 11.4878 4.5 9.00198C4.5 6.5162 6.51487 4.50079 9 4.50079C10.1471 4.50079 11.1908 4.93366 11.9854 5.64072L14.1068 3.51878C12.7673 2.27008 10.9755 1.5 9 1.5C4.85812 1.5 1.5 4.85901 1.5 9.00198C1.5 13.145 4.85812 16.504 9 16.504C13.1419 16.504 16.5 13.145 16.5 9.00198C16.5 8.49898 16.4482 8.00797 16.3541 7.53272Z" fill="#FFC107"/>
<path d="M2.36475 5.51019L4.82888 7.31779C5.49563 5.6666 7.11038 4.50079 9 4.50079C10.1471 4.50079 11.1908 4.93366 11.9854 5.64072L14.1068 3.51878C12.7673 2.27008 10.9755 1.5 9 1.5C6.11925 1.5 3.621 3.12681 2.36475 5.51019Z" fill="#FF3D00"/>
<path d="M9 16.5048C10.9373 16.5048 12.6975 15.7632 14.0284 14.5573L11.7071 12.5925C10.9288 13.1845 9.9778 13.5048 9 13.504C7.04925 13.504 5.39288 12.2598 4.76888 10.5234L2.32313 12.4083C3.56438 14.8378 6.08513 16.5048 9 16.5048Z" fill="#4CAF50"/>
<path d="M16.3541 7.53113H15.75V7.5H9V10.5008H13.2386C12.9428 11.3322 12.41 12.0586 11.706 12.5905L11.7071 12.5897L14.0284 14.5545C13.8641 14.7038 16.5 12.7514 16.5 9.0004C16.5 8.49739 16.4482 8.00638 16.3541 7.53113Z" fill="#1976D2"/>
</svg>